<svg version="1.2" xmlns="http://www.w3.org/2000/svg" viewBox="0 0 512 512" width="512" height="512">
	<style>
		tspan { white-space:pre } 
		.s0 { fill: #005e21 } 
		.s1 { fill-opacity: .43;fill: #00ff77 } 
		.s2 { fill: #000000 } 
		.t3 { font-size: 259px;fill: #00ff77;font-weight: 400;font-family: "DejaVuSans", "DejaVu Sans" } 
		.t4 { font-size: 259px;fill: #ffea00;font-weight: 400;font-family: "DejaVuSans", "DejaVu Sans" } 
	</style>
	<path id="Forma 2" fill-rule="evenodd" class="s0" d="m541.94-8v553.1h-570.94v-553.1z"/>
	<path id="Forma 1" fill-rule="evenodd" class="s1" d="m247.37 467.75c-116.89 0-211.37-94.49-211.37-211.38 0-116.89 94.48-211.37 211.37-211.37 116.89 0 211.38 94.48 211.38 211.37 0 116.89-94.49 211.38-211.38 211.38z"/>
	<path id="E" class="s2" d="m44.76 369.46v-223.38h115.81c14.04 0 25.43 11.38 25.43 25.43h-111.02v66.14h106.38c0 14.04-11.38 25.43-25.43 25.43h-80.95v80.95h400.65c0 14.04-11.39 25.43-25.44 25.43z"/>
	<text id="XCEL" style="transform: matrix(.22,0,0,.22,95.747,324.069)">
		<tspan x="0" y="0" class="t3">X</tspan><tspan  y="0" class="t3">C</tspan><tspan  y="0" class="t3">E</tspan><tspan  y="0" class="t3">L
</tspan>
	</text>
	<text id="ao" style="transform: matrix(.372,0,0,.372,243.852,329.809)">
		<tspan x="0" y="0" class="t4">a</tspan><tspan  y="0" class="t4">o
</tspan>
	</text>
</svg>